<svg width="375" height="375" viewBox="0 0 375 375" fill="none" xmlns="http://www.w3.org/2000/svg">
<g clip-path="url(#clip0)">
<g filter="url(#filter0_d)">
<path fill-rule="evenodd" clip-rule="evenodd" d="M45.6104 80.0168C44.9268 60.3916 60.2228 42.2946 80.8982 42.2944L294.475 42.2942C315.151 42.2947 330.446 60.3917 329.763 80.0169C329.106 98.8697 329.959 123.291 336.108 143.202C342.275 163.176 352.702 175.828 369.735 177.45L369.735 195.791C352.702 197.414 342.274 210.065 336.107 230.039C329.959 249.951 329.106 274.372 329.763 293.224C330.447 312.85 315.151 330.947 294.475 330.947L80.898 330.947C60.2228 330.946 44.927 312.849 45.6104 293.224C46.2674 274.372 45.4141 249.951 39.2659 230.039C33.0989 210.065 22.6718 197.413 5.63772 195.792L5.63791 177.45C22.6715 175.828 33.099 163.176 39.2661 143.203C45.4141 123.29 46.2673 98.8693 45.6104 80.0168Z" fill="url(#paint0_linear)"/>
</g>
<g filter="url(#filter1_d)">
<path fill-rule="evenodd" clip-rule="evenodd" d="M80.8977 42.9606C60.6402 42.961 45.6045 60.7042 46.276 79.9938C46.9338 98.8685 46.0843 123.379 39.9027 143.399C33.7737 163.248 23.3744 176.152 6.30382 178.051L6.30446 195.19C23.3745 197.09 33.774 209.994 39.9027 229.843C46.0842 249.862 46.9342 274.373 46.2767 293.248C45.6046 312.537 60.64 330.28 80.8979 330.281L294.476 330.281C314.733 330.28 329.769 312.537 329.097 293.248C328.44 274.373 329.289 249.862 335.471 229.842C341.6 209.993 351.999 197.089 369.069 195.191L369.069 178.051C351.999 176.151 341.599 163.247 335.471 143.399C329.289 123.379 328.439 98.8684 329.097 79.9936C329.769 60.704 314.733 42.9609 294.475 42.9605L80.8977 42.9606ZM369.735 177.45C352.702 175.828 342.275 163.176 336.108 143.202C329.959 123.291 329.106 98.8697 329.763 80.0169C330.446 60.3917 315.151 42.2947 294.475 42.2942L80.8982 42.2944C60.2228 42.2946 44.9268 60.3916 45.6104 80.0168C46.2673 98.8693 45.4141 123.29 39.2661 143.203C33.099 163.176 22.6715 175.828 5.63791 177.45L5.63772 195.792C22.6718 197.413 33.0989 210.065 39.2659 230.039C45.4143 249.95 46.2674 274.372 45.6104 293.224C44.927 312.849 60.2228 330.946 80.898 330.947L294.475 330.947C315.151 330.947 330.447 312.85 329.763 293.224C329.106 274.372 329.959 249.951 336.107 230.039C342.274 210.065 352.702 197.414 369.735 195.791L369.735 177.45V177.45Z" fill="black" fill-opacity="0.15"/>
</g>
<g filter="url(#filter2_d)">
<path d="M198.929 265.774C232.071 265.774 252.043 249.149 252.044 221.728C252.044 201 237.793 185.994 216.634 183.619L216.633 182.755C232.18 180.164 244.378 165.374 244.379 148.857C244.378 125.322 226.242 109.992 198.605 109.992L137.754 109.992C137.401 109.993 137.062 110.133 136.812 110.383C136.562 110.633 136.422 110.971 136.422 111.325L136.422 264.441C136.422 264.616 136.456 264.79 136.523 264.951C136.59 265.113 136.688 265.26 136.812 265.384C136.936 265.508 137.083 265.606 137.245 265.673C137.406 265.74 137.58 265.774 137.755 265.774L198.929 265.774V265.774ZM160.604 129.749L192.775 129.748C210.264 129.748 220.196 137.737 220.196 152.204C220.196 167.642 208.645 176.278 187.701 176.278L160.604 176.278L160.604 129.749V129.749ZM160.604 246.018L160.604 194.739L192.559 194.738C215.446 194.738 227.321 203.375 227.322 220.217C227.321 237.058 215.77 246.018 193.963 246.018L160.604 246.018V246.018Z" fill="url(#paint1_linear)"/>
</g>
<g filter="url(#filter3_d)">
<path fill-rule="evenodd" clip-rule="evenodd" d="M136.089 111.325C136.089 110.883 136.264 110.46 136.576 110.147C136.889 109.835 137.312 109.659 137.754 109.659L198.605 109.659C212.482 109.659 224.009 113.508 232.071 120.345C240.139 127.186 244.712 136.998 244.712 148.857C244.712 165.429 232.549 180.288 216.967 183.036L216.967 183.322C238.119 185.821 252.376 200.914 252.377 221.728C252.377 235.526 247.348 246.636 238.127 254.29C228.914 261.938 215.552 266.107 198.928 266.107L137.754 266.107C137.536 266.107 137.319 266.064 137.117 265.98C136.915 265.897 136.731 265.774 136.576 265.619C136.422 265.464 136.299 265.281 136.215 265.079C136.132 264.877 136.089 264.66 136.089 264.441L136.089 111.325V111.325ZM137.754 110.326C137.489 110.326 137.235 110.431 137.048 110.618C136.86 110.806 136.755 111.06 136.755 111.325L136.755 264.442C136.755 264.707 136.86 264.961 137.048 265.148C137.235 265.335 137.489 265.441 137.754 265.441L198.929 265.441C215.448 265.441 228.643 261.297 237.702 253.778C246.753 246.264 251.71 235.351 251.711 221.727C251.711 201.182 237.601 186.308 216.596 183.95L216.3 183.917L216.3 182.473L216.579 182.427C231.955 179.864 244.046 165.22 244.045 148.857C244.045 137.182 239.55 127.561 231.64 120.853C223.725 114.141 212.364 110.325 198.605 110.325L137.754 110.326V110.326ZM160.271 129.415L192.775 129.415C201.564 129.416 208.505 131.422 213.254 135.293C218.014 139.172 220.529 144.888 220.53 152.204C220.529 160.015 217.601 166.138 212.001 170.297C206.416 174.445 198.212 176.611 187.701 176.611L160.271 176.611L160.271 129.415ZM160.937 130.081L160.937 175.945L187.701 175.945C198.134 175.945 206.177 173.793 211.604 169.763C217.015 165.744 219.863 159.829 219.863 152.203C219.863 145.053 217.412 139.541 212.834 135.809C208.245 132.069 201.475 130.082 192.775 130.082L160.937 130.081V130.081ZM160.271 194.405L192.559 194.405C204.035 194.405 212.808 196.569 218.719 200.893C224.649 205.23 227.654 211.708 227.655 220.216C227.654 228.72 224.733 235.276 219.024 239.696C213.328 244.104 204.904 246.351 193.963 246.351L160.271 246.351L160.271 194.405V194.405ZM160.937 195.071L160.937 245.685L193.962 245.685C204.828 245.685 213.084 243.452 218.616 239.169C224.134 234.898 226.988 228.553 226.988 220.216C226.988 211.883 224.056 205.622 218.326 201.431C212.578 197.226 203.97 195.071 192.559 195.072L160.937 195.071V195.071Z" fill="white"/>
</g>
</g>
<defs>
<filter id="filter0_d" x="-49.32" y="-37.99" width="474.013" height="459.881" filterUnits="userSpaceOnUse" color-interpolation-filters="sRGB">
<feFlood flood-opacity="0" result="BackgroundImageFix"/>
<feColorMatrix in="SourceAlpha" type="matrix" values="0 0 0 0 0 0 0 0 0 0 0 0 0 0 0 0 0 0 127 0"/>
<feOffset dy="5.33"/>
<feGaussianBlur stdDeviation="10.66"/>
<feColorMatrix type="matrix" values="0 0 0 0 0.423529 0 0 0 0 0.0666667 0 0 0 0 0.956863 0 0 0 0.25 0"/>
<feBlend mode="normal" in2="BackgroundImageFix" result="effect1_dropShadow"/>
<feBlend mode="normal" in="SourceGraphic" in2="effect1_dropShadow" result="shape"/>
</filter>
<filter id="filter1_d" x="-49.32" y="-37.99" width="474.013" height="459.881" filterUnits="userSpaceOnUse" color-interpolation-filters="sRGB">
<feFlood flood-opacity="0" result="BackgroundImageFix"/>
<feColorMatrix in="SourceAlpha" type="matrix" values="0 0 0 0 0 0 0 0 0 0 0 0 0 0 0 0 0 0 127 0"/>
<feOffset dy="5.33"/>
<feGaussianBlur stdDeviation="10.66"/>
<feColorMatrix type="matrix" values="0 0 0 0 0.423529 0 0 0 0 0.0666667 0 0 0 0 0.956863 0 0 0 0.25 0"/>
<feBlend mode="normal" in2="BackgroundImageFix" result="effect1_dropShadow"/>
<feBlend mode="normal" in="SourceGraphic" in2="effect1_dropShadow" result="shape"/>
</filter>
<filter id="filter2_d" x="87.1834" y="84.3408" width="202.134" height="220.872" filterUnits="userSpaceOnUse" color-interpolation-filters="sRGB">
<feFlood flood-opacity="0" result="BackgroundImageFix"/>
<feColorMatrix in="SourceAlpha" type="matrix" values="0 0 0 0 0 0 0 0 0 0 0 0 0 0 0 0 0 0 127 0"/>
<feOffset dy="2.665"/>
<feGaussianBlur stdDeviation="5.33"/>
<feColorMatrix type="matrix" values="0 0 0 0 0 0 0 0 0 0 0 0 0 0 0 0 0 0 0.15 0"/>
<feBlend mode="normal" in2="BackgroundImageFix" result="effect1_dropShadow"/>
<feBlend mode="normal" in="SourceGraphic" in2="effect1_dropShadow" result="shape"/>
</filter>
<filter id="filter3_d" x="86.7753" y="83.9328" width="202.95" height="221.688" filterUnits="userSpaceOnUse" color-interpolation-filters="sRGB">
<feFlood flood-opacity="0" result="BackgroundImageFix"/>
<feColorMatrix in="SourceAlpha" type="matrix" values="0 0 0 0 0 0 0 0 0 0 0 0 0 0 0 0 0 0 127 0"/>
<feOffset dy="2.665"/>
<feGaussianBlur stdDeviation="5.33"/>
<feColorMatrix type="matrix" values="0 0 0 0 0 0 0 0 0 0 0 0 0 0 0 0 0 0 0.15 0"/>
<feBlend mode="normal" in2="BackgroundImageFix" result="effect1_dropShadow"/>
<feBlend mode="normal" in="SourceGraphic" in2="effect1_dropShadow" result="shape"/>
</filter>
<linearGradient id="paint0_linear" x1="59.7402" y1="49.934" x2="376.633" y2="302.781" gradientUnits="userSpaceOnUse">
<stop stop-color="#9013FE"/>
<stop offset="0.995" stop-color="#6610F2"/>
</linearGradient>
<linearGradient id="paint1_linear" x1="147.358" y1="120.246" x2="219.976" y2="240.125" gradientUnits="userSpaceOnUse">
<stop stop-color="white"/>
<stop offset="1" stop-color="#F1E5FC"/>
</linearGradient>
<clipPath id="clip0">
<rect width="375" height="375" fill="white"/>
</clipPath>
</defs>
</svg>
