<svg width="411" height="411" viewBox="0 0 411 411" fill="none" xmlns="http://www.w3.org/2000/svg">
<path d="M387.8 0L354.748 369.857L206.178 411L58.017 369.915L25 0H387.8Z" fill="#264DE4"/>
<path d="M326.452 346.306L354.697 30.246H206.4V379.552L326.452 346.306Z" fill="#2965F1"/>
<path d="M100.691 167.442L104.761 212.81H206.4V167.442H100.691Z" fill="#EBEBEB"/>
<path d="M206.4 75.6151H206.243H92.5115L96.6402 120.984H206.4V75.6151Z" fill="#EBEBEB"/>
<path d="M206.4 332.472V285.269L206.201 285.322L155.618 271.679L152.384 235.495H127.805H106.791L113.154 306.73L206.191 332.53L206.4 332.472Z" fill="#EBEBEB"/>
<path d="M262.171 212.81L256.899 271.65L206.243 285.307V332.508L299.354 306.73L300.037 299.065L310.71 179.625L311.818 167.442L320.018 75.6151H206.243V120.984H270.243L266.11 167.442H206.243V212.81H262.171Z" fill="white"/>
</svg>
