<svg width="411" height="411" viewBox="0 0 411 411" fill="none" xmlns="http://www.w3.org/2000/svg">
<g clip-path="url(#clip0)">
<path d="M58 370.4L25 0H387.8L354.8 370.2L206.1 411.4" fill="#E44D26"/>
<path d="M206.4 379.9V30.4H354.7L326.4 346.4" fill="#F16529"/>
<path d="M92.3999 75.7H206.4V121.1H142.2L146.4 167.6H206.4V212.9H104.8L92.3999 75.7ZM106.8 235.7H152.4L155.6 272L206.4 285.6V333L113.2 307" fill="#EBEBEB"/>
<path d="M320 75.7H206.2V121.1H315.8L320 75.7ZM311.7 167.6H206.2V213H262.2L256.9 272L206.2 285.6V332.8L299.2 307" fill="white"/>
</g>
<defs>
<clipPath id="clip0">
<rect width="411" height="411" fill="white"/>
</clipPath>
</defs>
</svg>
