<svg width="1080" height="1080" viewBox="0 0 1080 1080" fill="none" xmlns="http://www.w3.org/2000/svg">
<g clip-path="url(#clip0)">
<path d="M112.59 264.06C88.0535 280.462 67.4998 314.314 61.2898 345.533H1018.71C1012.5 314.314 991.946 280.395 967.41 264.06L593.392 14.6475C578.745 4.86 559.372 0 540 0C520.627 0 501.255 4.89375 486.607 14.6475L112.59 264.06Z" fill="#3B9AB7"/>
<path d="M294.536 235.98C294.536 192.476 326.16 156.33 367.706 149.377C355.134 147.278 342.255 147.943 329.966 151.326C317.677 154.709 306.272 160.729 296.546 168.966C286.819 177.204 279.003 187.461 273.643 199.026C268.282 210.59 265.505 223.183 265.505 235.929C265.505 248.676 268.282 261.269 273.643 272.833C279.003 284.397 286.819 294.655 296.546 302.893C306.272 311.13 317.677 317.15 329.966 320.533C342.255 323.915 355.134 324.58 367.706 322.481C347.255 319.035 328.685 308.457 315.29 292.622C301.896 276.787 294.543 256.72 294.536 235.98ZM550.125 300.712L546.21 288.562L542.228 300.712H529.47L539.73 308.239L535.916 320.389L546.21 312.863L556.47 320.355L552.521 308.205L562.815 300.712H550.125ZM546.21 218.329L542.228 230.58H529.47L539.73 237.971L535.916 250.121L546.21 242.696L556.47 250.121L552.521 237.971L562.815 230.58H550.125L546.176 218.329H546.21ZM546.21 148.162L542.228 160.312H529.47L539.73 167.839L535.916 179.955L546.21 172.429L556.47 179.955L552.521 167.805L562.815 160.312H550.125L546.176 148.162H546.21ZM620.291 300.712L616.478 288.562L612.495 300.712H599.738L609.998 308.239L606.049 320.389L616.478 312.863L626.738 320.355L622.789 308.205L633.083 300.712H620.258H620.291ZM616.478 218.329L612.495 230.58H599.738L609.998 237.971L606.049 250.121L616.478 242.696L626.738 250.121L622.789 237.971L633.083 230.58H620.258L616.478 218.329ZM616.478 148.162L612.495 160.312H599.738L609.998 167.839L606.049 179.955L616.478 172.429L626.738 179.955L622.789 167.805L633.083 160.312H620.258L616.478 148.162ZM690.525 300.712L686.61 288.562L682.661 300.712H669.836L680.299 308.239L676.316 320.389L686.61 312.863L696.87 320.355L692.921 308.205L703.35 300.712H690.525ZM686.61 218.329L682.661 230.58H669.836L680.299 237.971L676.316 250.121L686.61 242.696L696.87 250.121L692.921 237.971L703.35 230.58H690.525L686.61 218.329ZM680.265 167.839L676.316 179.955L686.61 172.429L696.87 179.955L692.921 167.805L703.35 160.312H690.525L686.61 148.162L682.661 160.312H669.836L680.299 167.839H680.265ZM409.624 300.712L405.675 288.562L401.828 300.712H389.036L399.33 308.239L395.381 320.389L405.675 312.863L416.07 320.355L412.121 308.205L422.415 300.712H409.59H409.624ZM479.891 300.712L475.943 288.562L471.96 300.712H459.169L469.631 308.239L465.649 320.389L475.943 312.863L486.203 320.355L482.254 308.205L492.683 300.712H479.858H479.891ZM475.943 218.329L471.96 230.58H459.169L469.631 237.971L465.649 250.121L475.943 242.696L486.203 250.121L482.254 237.971L492.683 230.58H479.858L475.943 218.329Z" fill="white"/>
<path d="M112.59 815.94L486.607 1065.35C516.004 1084.89 563.996 1084.89 593.392 1065.35L967.41 815.94C991.946 799.571 1012.5 765.72 1018.71 734.467H61.2898C67.4998 765.686 88.0535 799.605 112.59 815.94Z" fill="#39B73E"/>
<path d="M59.1974 712.834H1020.8V367.2H59.1974V712.8" fill="white"/>
<path d="M59.1974 716.276C59.1974 722.081 60.1087 728.257 61.2899 734.467H1018.71C1019.89 728.257 1020.8 722.081 1020.8 716.242V712.867H59.1974V716.242V716.276ZM59.1974 363.724V367.166H1020.8V363.724C1020.8 357.919 1019.89 351.742 1018.71 345.532H61.2899C60.0291 351.529 59.3285 357.631 59.1974 363.757" fill="#D01E27"/>
</g>
<defs>
<clipPath id="clip0">
<rect width="1080" height="1080" fill="white"/>
</clipPath>
</defs>
</svg>
